<mxfile host="app.diagrams.net" modified="2023-06-15T09:04:46.131Z" agent="Mozilla/5.0 (Windows NT 10.0; Win64; x64) AppleWebKit/537.36 (KHTML, like Gecko) Chrome/113.0.0.0 Safari/537.36 OPR/99.0.0.0" etag="rQXevkH2ye-K-hzx6-Db" version="21.4.0" type="github">
  <diagram name="Страница 1" id="w95SGao3gKyW_HmRo9V9">
    <mxGraphModel dx="1394" dy="789" grid="1" gridSize="10" guides="1" tooltips="1" connect="1" arrows="1" fold="1" page="1" pageScale="1" pageWidth="827" pageHeight="1169" math="0" shadow="0">
      <root>
        <mxCell id="0" />
        <mxCell id="1" parent="0" />
        <mxCell id="A-xNXG9kVISEkPX7Qmv6-2" value="CLI" style="rounded=0;whiteSpace=wrap;html=1;" parent="1" vertex="1">
          <mxGeometry x="100" y="90" width="120" height="30" as="geometry" />
        </mxCell>
        <mxCell id="A-xNXG9kVISEkPX7Qmv6-3" value="UI" style="rounded=0;whiteSpace=wrap;html=1;" parent="1" vertex="1">
          <mxGeometry x="240" y="90" width="120" height="30" as="geometry" />
        </mxCell>
        <mxCell id="A-xNXG9kVISEkPX7Qmv6-4" value="WebUI" style="rounded=0;whiteSpace=wrap;html=1;" parent="1" vertex="1">
          <mxGeometry x="380" y="90" width="120" height="30" as="geometry" />
        </mxCell>
        <mxCell id="A-xNXG9kVISEkPX7Qmv6-5" value="Web" style="rounded=0;whiteSpace=wrap;html=1;" parent="1" vertex="1">
          <mxGeometry x="520" y="90" width="120" height="30" as="geometry" />
        </mxCell>
        <mxCell id="A-xNXG9kVISEkPX7Qmv6-6" value="RestAPI" style="rounded=0;whiteSpace=wrap;html=1;" parent="1" vertex="1">
          <mxGeometry x="380" y="160" width="120" height="30" as="geometry" />
        </mxCell>
        <mxCell id="A-xNXG9kVISEkPX7Qmv6-7" value="SocketIO" style="rounded=0;whiteSpace=wrap;html=1;" parent="1" vertex="1">
          <mxGeometry x="520" y="160" width="120" height="30" as="geometry" />
        </mxCell>
        <mxCell id="A-xNXG9kVISEkPX7Qmv6-8" value="Flask, FastAPI, etc." style="rounded=0;whiteSpace=wrap;html=1;dashed=1;fillColor=none;align=right;verticalAlign=bottom;" parent="1" vertex="1">
          <mxGeometry x="370" y="150" width="280" height="70" as="geometry" />
        </mxCell>
        <mxCell id="A-xNXG9kVISEkPX7Qmv6-9" value="" style="endArrow=classic;html=1;rounded=0;entryX=0.5;entryY=0;entryDx=0;entryDy=0;exitX=0.5;exitY=1;exitDx=0;exitDy=0;" parent="1" source="A-xNXG9kVISEkPX7Qmv6-4" target="A-xNXG9kVISEkPX7Qmv6-6" edge="1">
          <mxGeometry width="50" height="50" relative="1" as="geometry">
            <mxPoint x="390" y="130" as="sourcePoint" />
            <mxPoint x="440" y="80" as="targetPoint" />
          </mxGeometry>
        </mxCell>
        <mxCell id="A-xNXG9kVISEkPX7Qmv6-10" value="" style="endArrow=none;html=1;rounded=0;entryX=0.25;entryY=1;entryDx=0;entryDy=0;" parent="1" target="A-xNXG9kVISEkPX7Qmv6-5" edge="1">
          <mxGeometry width="50" height="50" relative="1" as="geometry">
            <mxPoint x="440" y="130" as="sourcePoint" />
            <mxPoint x="590" y="140" as="targetPoint" />
            <Array as="points">
              <mxPoint x="550" y="130" />
            </Array>
          </mxGeometry>
        </mxCell>
        <mxCell id="A-xNXG9kVISEkPX7Qmv6-11" value="" style="endArrow=classic;startArrow=classic;html=1;rounded=0;entryX=0.75;entryY=1;entryDx=0;entryDy=0;exitX=0.5;exitY=0;exitDx=0;exitDy=0;" parent="1" source="A-xNXG9kVISEkPX7Qmv6-7" target="A-xNXG9kVISEkPX7Qmv6-4" edge="1">
          <mxGeometry width="50" height="50" relative="1" as="geometry">
            <mxPoint x="500" y="200" as="sourcePoint" />
            <mxPoint x="550" y="150" as="targetPoint" />
            <Array as="points">
              <mxPoint x="580" y="140" />
              <mxPoint x="470" y="140" />
            </Array>
          </mxGeometry>
        </mxCell>
        <mxCell id="A-xNXG9kVISEkPX7Qmv6-12" value="" style="endArrow=classic;html=1;rounded=0;entryX=0.5;entryY=1;entryDx=0;entryDy=0;" parent="1" target="A-xNXG9kVISEkPX7Qmv6-5" edge="1">
          <mxGeometry width="50" height="50" relative="1" as="geometry">
            <mxPoint x="580" y="140" as="sourcePoint" />
            <mxPoint x="550" y="150" as="targetPoint" />
          </mxGeometry>
        </mxCell>
      </root>
    </mxGraphModel>
  </diagram>
</mxfile>
